<svg width="131" height="41" viewBox="0 0 131 41" fill="none" xmlns="http://www.w3.org/2000/svg">
<path d="M20.6765 40.048C16.3304 40.048 12.1202 38.6219 8.58901 36.0415C6.34808 34.4117 4.51459 32.3066 3.15645 29.8619C1.86621 27.621 0.983422 25.1084 0.711794 22.5279C0.168538 18.3856 0.983423 14.1754 2.95273 10.5084C4.24296 8.13165 6.07645 5.95863 8.24948 4.32886C16.4662 -2.12231 28.2142 -1.17161 35.4123 6.43398C39.283 10.5763 41.2523 16.1447 40.777 21.781C40.4374 26.127 38.6718 30.2014 35.7518 33.461C34.19 35.1587 32.4244 36.5847 30.3872 37.6712C28.6895 38.554 26.856 39.2331 24.8867 39.6405C23.4607 39.9122 22.0346 40.048 20.6765 40.048Z" fill="#781E19" style="fill:#781E19;fill:color(display-p3 0.4706 0.1176 0.0980);fill-opacity:1;"/>
<path d="M20.8802 40.048C21.016 40.048 21.0839 39.9801 21.2197 40.048H20.8802Z" fill="#A26C6A" style="fill:#A26C6A;fill:color(display-p3 0.6353 0.4235 0.4157);fill-opacity:1;"/>
<path d="M20.3369 40.048H20.0653C20.1332 39.9801 20.269 40.048 20.3369 40.048Z" fill="#AA7775" style="fill:#AA7775;fill:color(display-p3 0.6667 0.4667 0.4588);fill-opacity:1;"/>
<path d="M21.5593 40.048H21.3555C21.4234 39.9801 21.4913 40.048 21.5593 40.048Z" fill="#D6BDBB" style="fill:#D6BDBB;fill:color(display-p3 0.8392 0.7412 0.7333);fill-opacity:1;"/>
<path d="M20.6765 35.7019C17.2811 35.7019 14.0216 34.6154 11.3053 32.5782C9.5397 31.288 8.11365 29.6582 7.02714 27.7568C6.00853 25.9912 5.32946 24.0219 5.12574 21.9847C4.7183 18.7252 5.32946 15.4656 6.89132 12.6135C7.90993 10.7121 9.33598 9.08235 10.9657 7.79212C17.4169 2.767 26.5844 3.44607 32.1527 9.42189C35.2086 12.6135 36.7025 16.9596 36.2951 21.3735C36.0235 24.7689 34.6653 27.9605 32.3565 30.4731C31.1341 31.8312 29.7081 32.9177 28.1462 33.8005C26.7881 34.5475 25.362 35.0228 23.8681 35.3624C22.8495 35.5661 21.763 35.7019 20.6765 35.7019Z" fill="white" style="fill:white;fill-opacity:1;"/>
<path d="M22.51 37.4675C22.51 37.1959 22.51 37.1959 22.7816 37.128C22.7137 36.9922 22.6458 36.8564 22.4421 36.9243C22.3062 36.9922 22.1704 36.9243 22.1704 36.7884C22.0346 36.5847 21.8988 36.4489 21.6951 36.2452C21.5593 36.1094 21.3555 36.0415 21.1518 35.9736C20.8802 35.9057 20.6086 36.1094 20.5407 36.381C20.5407 36.4489 20.5407 36.5168 20.5407 36.5847C20.5407 36.7205 20.6086 36.7884 20.6765 36.9243C19.6579 36.9243 18.6393 36.8564 17.6207 36.6526C17.6886 36.7884 17.6886 36.9243 17.8244 36.9243C18.096 36.9922 18.096 36.9922 18.0281 37.2638V37.3317C17.9602 37.4675 18.0281 37.6712 17.8923 37.7391C17.7565 37.8071 17.6206 37.6712 17.4848 37.6712C17.349 37.6712 17.349 37.6033 17.349 37.5354C17.349 37.3996 17.4169 37.2638 17.4169 37.0601C17.4848 36.7884 17.349 36.5168 17.2132 36.381C17.0774 36.2452 16.8737 36.2452 16.7379 36.381C16.7379 36.4489 16.67 36.4489 16.602 36.4489C16.4662 36.381 16.3304 36.381 16.1946 36.3131C16.1267 36.3131 16.1267 36.2452 16.1267 36.2452C16.0588 35.9057 15.923 35.5661 15.7193 35.2945C15.5834 35.0908 15.3797 35.0229 15.176 34.955C14.9723 34.8871 14.7006 35.0908 14.6327 35.2945C14.5648 35.4303 14.5648 35.634 14.5648 35.7698C14.2932 35.634 14.0216 35.5661 13.7499 35.4303C13.682 35.3624 13.682 35.3624 13.682 35.2945C13.682 35.0229 13.6141 34.6833 13.4783 34.4796C13.4104 34.3438 13.3425 34.208 13.2067 34.0722C13.003 33.8684 12.6634 33.8684 12.4597 34.0722C12.3918 34.1401 12.3239 34.208 12.3239 34.2759C12.256 34.4117 12.256 34.4796 12.256 34.6154L11.7806 34.3438C11.7806 34.5475 11.7806 34.6833 11.9844 34.7512C12.0523 34.7512 12.0523 34.8191 12.0523 34.8871C11.7806 35.2945 11.5769 35.7019 11.3053 36.1094C11.2374 36.1773 11.2374 36.2452 11.3053 36.3131C11.3732 36.381 11.4411 36.4489 11.4411 36.5168L12.3239 35.0229C12.4597 35.1587 12.6634 35.2266 12.8672 35.2945C12.9351 35.2945 13.003 35.3624 12.9351 35.4303C12.9351 35.5661 12.8672 35.7019 12.7313 35.8377C12.6634 35.9057 12.5276 35.9736 12.5276 35.7698C12.5276 35.7019 12.4597 35.634 12.3918 35.634C12.3239 35.634 12.256 35.7019 12.256 35.7698C12.256 35.8377 12.256 35.9057 12.256 35.9736C12.3239 36.381 12.3918 36.7205 12.5276 37.128C12.5276 37.1959 12.5955 37.1959 12.6634 37.1959C12.7313 37.1959 12.7992 37.128 12.7313 37.0601C12.5955 36.9243 12.5276 36.7205 12.5276 36.5168C12.4597 36.381 12.4597 36.3131 12.6634 36.3131C12.7313 36.3131 12.7992 36.2452 12.8672 36.1773C12.9351 36.1094 12.9351 36.1094 13.003 36.1773C13.0709 36.381 13.2746 36.5847 13.5462 36.6526C13.4783 36.7884 13.4104 36.9922 13.3425 37.128C13.2746 37.1959 13.2746 37.2638 13.3425 37.3317C13.4104 37.3996 13.4104 37.4675 13.4783 37.5354L14.0895 36.2452C14.0895 36.1773 14.1574 36.1094 14.2253 36.0415C14.2932 35.9736 14.3611 36.1094 14.4969 36.1094C14.6327 36.1094 14.6327 36.1773 14.5648 36.2452C14.429 36.5847 14.2932 36.9922 14.1574 37.3317C14.0216 37.5354 14.0895 37.7391 14.2932 37.875C14.2932 37.875 14.2932 37.8071 14.3611 37.8071C14.4969 37.3996 14.7006 36.9243 14.8365 36.5168C14.9044 36.4489 14.9044 36.3131 14.9723 36.3131C15.0402 36.2452 15.1081 36.381 15.176 36.381C15.5834 36.5168 15.9909 36.6526 16.3983 36.7205C16.5341 36.7884 16.4662 36.8564 16.4662 36.8564C16.4662 36.8564 16.3983 36.9922 16.3304 36.9922C16.1946 36.9243 16.1267 36.9243 15.9909 36.8564C15.7872 36.7884 15.6513 36.7884 15.4476 36.9243C15.3118 37.0601 15.3118 37.2638 15.4476 37.3996C15.4476 37.4675 15.4476 37.4675 15.3797 37.5354C15.3118 37.6033 15.176 37.5354 15.176 37.4675C15.1081 37.3996 15.176 37.3317 15.2439 37.2638C15.3118 37.1959 15.3118 37.1959 15.2439 37.128C15.176 37.0601 15.176 36.9922 15.1081 36.9922C15.1081 36.9243 15.0402 36.9243 15.0402 36.9243C14.9044 36.9922 14.7686 37.1959 14.8365 37.3317V37.3996C14.9044 37.4675 14.9723 37.5354 15.0402 37.6033C15.1081 37.6712 15.1081 37.6712 15.1081 37.7391C15.0402 37.8071 15.0402 37.9429 15.1081 38.0108C15.2439 38.2824 15.5834 38.4182 15.923 38.3503C16.0588 38.3503 16.1267 38.2145 16.1946 38.2145C16.2625 38.2824 16.2625 38.4182 16.3304 38.554C16.3304 38.6219 16.3983 38.6219 16.4662 38.6219C16.5341 38.6219 16.5341 38.554 16.5341 38.4861C16.4662 38.3503 16.3983 38.2824 16.3304 38.1466C16.2625 38.0787 16.1946 38.0108 16.3983 37.9429C16.5341 37.875 16.5341 37.8071 16.5341 37.6712C16.5341 37.5354 16.3983 37.4675 16.2625 37.4675C16.1267 37.4675 16.0588 37.4675 16.0588 37.6033C16.0588 37.6712 15.9909 37.6712 15.9909 37.6712C15.923 37.6712 15.8551 37.6033 15.7193 37.6033C15.5834 37.5354 15.5155 37.3996 15.5834 37.2638C15.6513 37.128 15.7872 37.0601 15.923 37.128C16.0588 37.128 16.1267 37.1959 16.2625 37.1959C16.3983 37.2638 16.5341 37.3317 16.67 37.2638C16.8058 37.1959 16.7379 36.9922 16.8058 36.8564C16.8058 36.7884 16.8058 36.7205 16.8737 36.7205C16.9416 36.7205 17.0095 36.7884 17.0095 36.8564C17.0095 36.9922 17.1453 37.0601 17.2132 37.128C17.349 37.1959 17.349 37.3317 17.349 37.4675C17.349 37.6033 17.2811 37.6033 17.2132 37.6033C17.0774 37.6033 17.0095 37.6033 17.0095 37.7391C17.0095 37.9429 17.1453 38.1466 17.349 38.2824C17.4848 38.3503 17.5527 38.2824 17.5527 38.2145C17.5527 37.9429 17.6886 38.0108 17.8244 38.0108C17.8923 38.0108 17.8923 38.0108 17.9602 38.0108C18.1639 38.0787 18.1639 38.0787 18.096 38.2145C18.0281 38.554 18.0281 38.554 18.2997 38.7578C18.3676 38.2824 18.4355 37.8071 18.5714 37.3317C18.5714 37.2638 18.5713 37.128 18.6393 37.0601C18.7072 36.9922 18.7751 37.0601 18.843 37.0601H18.9109L19.9295 37.128C19.9974 37.128 19.9974 37.128 19.9974 37.1959C19.9974 37.3996 19.9974 37.6033 19.9295 37.8071C19.8616 37.7391 19.7937 37.6712 19.7258 37.6033C19.59 37.4675 19.4541 37.3996 19.2504 37.3996C18.9788 37.3317 18.7751 37.5354 18.7072 37.7391C18.7072 37.8071 18.7072 37.8071 18.7072 37.875C18.7751 38.2824 19.1825 38.4861 19.59 38.4182H19.6579C19.7258 38.3503 19.7937 38.3503 19.8616 38.3503C19.7937 38.6219 19.8616 38.8257 20.1332 38.8936C20.1332 38.4182 20.2011 37.9429 20.269 37.4675C20.269 37.3996 20.269 37.2638 20.269 37.1959C20.3369 37.0601 20.4727 37.1959 20.5407 37.128C20.6765 37.0601 20.6765 37.128 20.6765 37.2638C20.6765 37.6712 20.6765 38.0787 20.6765 38.4182C20.6765 38.7578 20.6765 38.7577 21.016 38.8936C21.016 38.3503 21.016 37.8071 21.016 37.3317C21.016 37.1959 21.016 37.128 21.2197 37.128C21.5593 37.128 21.8309 37.0601 22.1704 37.0601C22.51 37.0601 22.3741 36.9922 22.4421 37.2638C22.4421 37.3317 22.4421 37.3996 22.3062 37.3996C22.1704 37.3996 21.9667 37.4675 21.763 37.3996C21.4914 37.3996 21.2876 37.5354 21.2876 37.8071C21.2876 37.9429 21.2876 38.0108 21.3555 38.1466C21.4914 38.3503 21.6272 38.554 21.8309 38.6898C21.8988 38.7578 21.8988 38.8257 21.9667 38.7578C22.0346 38.6898 21.9667 38.6219 21.8988 38.6219C21.6951 38.4861 21.6272 38.2824 21.5593 38.0787C21.5593 37.9429 21.6272 37.8071 21.763 37.8071H21.8309C21.9667 37.8071 22.1704 37.8071 22.3062 37.7391C22.3741 37.7391 22.4421 37.7391 22.4421 37.8071C22.4421 37.9429 22.51 38.1466 22.4421 38.3503C22.4421 38.6219 22.5779 38.7578 22.7816 38.7578C22.7816 38.6898 22.7816 38.6219 22.7816 38.554C22.5779 38.2824 22.5779 37.875 22.51 37.4675ZM12.256 34.7512C12.1881 34.7512 12.1881 34.6833 12.1881 34.6154C12.3239 34.3438 12.6634 34.0722 13.003 34.4117C13.2067 34.6833 13.3425 35.0229 13.4104 35.3624C13.003 35.2266 12.6634 35.0229 12.256 34.7512ZM13.6141 35.8377C13.5462 35.9736 13.4783 36.0415 13.4783 36.1773C13.4104 36.3131 13.3425 36.3131 13.2067 36.3131C13.003 36.3131 12.7993 36.1773 12.7993 35.9736C12.7993 35.9057 12.7993 35.9057 12.7993 35.8377C12.8672 35.7019 12.8672 35.634 12.8672 35.4982C12.8672 35.4303 12.8672 35.4303 12.9351 35.4303C13.1388 35.4982 13.2746 35.634 13.4783 35.7019C13.6141 35.7698 13.6141 35.7698 13.6141 35.8377ZM14.7006 35.9057C14.6327 35.8377 14.6327 35.8377 14.6327 35.7698C14.7686 35.4303 14.9723 35.1587 15.4476 35.4982C15.7193 35.7019 15.923 36.0415 15.9909 36.3131C15.5155 36.2452 15.1081 36.1094 14.7006 35.9057ZM15.3118 37.7391C15.4476 37.8071 15.5155 37.875 15.6513 37.875C15.5155 38.0108 15.3797 38.0787 15.2439 38.0787C15.176 38.0787 15.0402 38.0787 15.0402 37.9429C15.0402 37.875 15.0402 37.8071 15.1081 37.7391C15.1081 37.7391 15.2439 37.7391 15.3118 37.7391ZM17.0774 37.0601C17.0095 37.128 16.8737 36.9243 16.8737 36.7884C16.8737 36.6526 16.9416 36.5847 17.0774 36.5847C17.1453 36.5847 17.2132 36.6526 17.2132 36.7205C17.1453 36.8564 17.1453 36.9922 17.0774 37.0601ZM19.6579 38.0787C19.522 38.1466 19.3183 38.2145 19.1825 38.2824C18.9788 38.2824 18.843 38.2145 18.7751 38.0787C18.7751 37.9429 18.9109 37.8071 19.1146 37.7391C19.1825 37.7391 19.1825 37.7391 19.2504 37.7391C19.4541 37.7391 19.59 37.875 19.6579 38.0787ZM21.6272 36.9922C21.3555 36.9922 21.0839 37.0601 20.8123 36.9922C20.7444 36.9922 20.6765 36.9922 20.6765 36.8564C20.6086 36.5847 20.7444 36.381 21.016 36.3131C21.0839 36.3131 21.2197 36.3131 21.2876 36.3131C21.6272 36.4489 21.8988 36.6526 22.1025 36.9243C21.8988 36.9243 21.763 36.9922 21.6272 36.9922Z" fill="white" style="fill:white;fill-opacity:1;"/>
<path d="M29.5044 35.1586C29.3686 34.9549 29.3686 34.9549 29.5723 34.8191C29.4365 34.6833 29.2328 34.6833 29.0969 34.8191C28.8932 34.9549 28.6216 35.0907 28.4179 35.2265C27.7388 35.4982 27.1276 35.8377 26.4486 36.0414C25.6337 36.313 24.8188 36.5847 24.0039 36.7205C23.6644 36.7884 23.3249 36.8563 23.0532 36.9242C23.1211 37.06 23.3249 37.1279 23.5286 37.06C23.7323 36.9921 24.0039 36.9921 24.2076 36.9242C24.2756 36.9242 24.2756 36.9242 24.3435 36.9921C24.3435 37.1279 24.4114 37.3316 24.4114 37.4675C24.0039 37.2637 23.936 37.2637 23.7323 37.3316C23.5286 37.3996 23.4607 37.5354 23.4607 37.7391C23.5286 38.0786 23.8681 38.2823 24.2076 38.1465C24.2756 38.1465 24.3435 38.0786 24.4114 38.0107C24.4793 38.2144 24.4793 38.4861 24.7509 38.554C24.8188 38.554 24.8188 38.4861 24.8188 38.4182C24.7509 38.2144 24.7509 38.0786 24.683 37.8749C24.6151 37.6712 24.7509 37.5354 24.8867 37.3996C25.0225 37.3316 25.1583 37.3316 25.2262 37.4675C25.2262 37.5354 25.2942 37.5354 25.2942 37.6033C25.2942 37.7391 25.2942 37.8749 25.2262 38.0107C25.1583 38.0786 25.2262 38.1465 25.2942 38.1465C25.3621 38.1465 25.3621 38.2144 25.43 38.2144C25.4979 38.2823 25.4979 38.2144 25.5658 38.1465C25.6337 38.0107 25.6337 37.807 25.6337 37.6712C25.4979 37.1958 25.0904 36.9921 24.7509 37.2637C24.7509 37.1958 24.7509 37.1958 24.7509 37.1279C24.683 36.7884 24.683 36.7884 25.0225 36.7205C25.2262 36.7205 25.43 36.6526 25.6337 36.5168C25.7016 36.4489 25.7016 36.5168 25.7695 36.5847C25.8374 36.7205 25.9053 36.9242 25.9053 37.06C25.9732 37.1958 25.9732 37.1958 25.8374 37.2637C25.7016 37.3316 25.7016 37.3996 25.7695 37.5354C25.9053 37.6712 25.9732 37.7391 26.1769 37.807C26.2449 37.8749 26.3807 37.8749 26.4486 37.807C26.5165 37.7391 26.4486 37.6712 26.4486 37.5354C26.4486 37.3996 26.4486 37.3996 26.5165 37.3996C26.6523 37.3316 26.7881 37.3316 26.9239 37.2637C26.9918 37.2637 27.0597 37.2637 27.0597 37.3316C27.0597 37.3996 27.0597 37.3996 27.1276 37.4675C27.1956 37.7391 27.2635 37.7391 27.603 37.7391C27.603 37.6712 27.5351 37.6033 27.5351 37.6033C27.3993 37.1279 27.1956 36.6526 27.0597 36.1772C27.0597 36.1772 26.9918 36.1093 27.0597 36.0414C27.5351 35.8377 28.0104 35.634 28.4858 35.4302C28.6216 35.3623 28.6216 35.3623 28.6895 35.4982C28.6895 35.5661 28.6895 35.5661 28.7574 35.634C28.8253 35.7698 28.8253 35.7698 28.6895 35.8377C28.4179 35.9735 28.1463 36.1093 27.8746 36.2451C28.0104 36.313 28.0783 36.313 28.2142 36.3809C28.35 36.4489 28.4179 36.5168 28.5537 36.5847C28.6216 36.6526 28.6895 36.7884 28.5537 36.9242C28.4858 36.9921 28.4179 36.9921 28.35 36.9921C28.2142 36.9921 28.0783 36.9921 28.0104 36.9242C27.8746 36.8563 27.7388 36.7205 27.603 36.5847C27.603 36.5847 27.5351 36.5168 27.5351 36.5847C27.4672 36.5847 27.4672 36.6526 27.5351 36.6526C27.8067 36.9921 28.1463 37.1958 28.6216 37.2637C28.8253 37.2637 29.029 37.1279 29.029 36.9242C29.029 36.7884 28.9611 36.6526 28.8932 36.5847C28.7574 36.5168 28.6895 36.4489 28.5537 36.3809C28.6895 36.313 28.8253 36.2451 28.9611 36.1772C29.029 36.1093 29.0969 36.1772 29.0969 36.2451C29.1649 36.4489 29.3007 36.6526 29.3686 36.8563C29.3686 36.9242 29.4365 36.9921 29.5044 36.9921C29.5723 36.9921 29.6402 36.9921 29.776 36.9921C29.776 36.9242 29.776 36.8563 29.7081 36.8563C29.5044 36.4489 29.3686 36.0414 29.1649 35.7019C29.097 35.634 29.097 35.5661 29.029 35.4982C29.029 35.3623 29.1649 35.4303 29.2328 35.3623C29.3007 35.2265 29.3686 35.2944 29.3686 35.3623C29.5723 35.7019 29.776 36.0414 29.9797 36.3809C30.1156 36.6526 30.1835 36.6526 30.4551 36.5847L29.5044 35.1586ZM24.4793 37.6712C24.4114 37.807 24.2756 37.8749 24.1397 37.9428C24.0718 38.0107 23.936 37.9428 23.8681 37.8749C23.8681 37.807 23.8681 37.7391 23.8681 37.7391C24.0039 37.5354 24.2076 37.4675 24.4793 37.6712C24.4793 37.6033 24.4793 37.6033 24.4793 37.6712ZM26.7881 36.9242C26.7881 36.9921 26.7881 36.9921 26.7881 36.9242C26.5844 36.9921 26.3807 37.1279 26.2449 37.06C26.109 36.9921 26.109 36.7884 26.0411 36.6526C25.9053 36.381 25.9732 36.381 26.2449 36.313C26.5165 36.1772 26.5165 36.1772 26.6523 36.5168L26.7881 36.9242C26.856 36.9242 26.856 36.9242 26.7881 36.9242Z" fill="white" style="fill:white;fill-opacity:1;"/>
<path d="M37.9249 20.0154C38.3323 20.1512 38.7398 20.2191 39.0793 20.355C39.2151 20.4229 39.4867 20.4229 39.5546 20.4908C39.6225 20.6266 39.5546 20.8303 39.6225 20.9661C39.6904 21.1019 39.5546 21.1698 39.4188 21.1698C38.7398 21.1698 38.1286 21.2378 37.4495 21.3057C37.3137 21.3057 37.2458 21.3057 37.2458 21.1698C37.2458 20.8303 37.2458 20.8303 37.5853 20.7624C38.0607 20.7624 38.536 20.6945 39.0793 20.6945C38.536 20.5587 37.9928 20.4229 37.5174 20.2191C37.4495 20.2191 37.3137 20.2191 37.3137 20.1512C37.3137 20.0154 37.3137 19.8796 37.3137 19.8117C37.3137 19.7438 37.3816 19.7438 37.4495 19.7438C37.9249 19.608 38.4681 19.4043 38.9435 19.3364C39.0114 19.3364 39.0114 19.3364 39.0793 19.2684L37.7891 19.2005C37.6532 19.2005 37.5174 19.2005 37.3816 19.2005C37.3137 19.2005 37.2458 19.2005 37.2458 19.0647C37.1779 18.6573 37.1779 18.6573 37.5853 18.6573C38.1965 18.6573 38.8756 18.7252 39.4867 18.7252C39.5546 18.7252 39.6225 18.7252 39.6225 18.861C39.6225 19.0647 39.6904 19.2685 39.6225 19.4043C39.5546 19.5401 39.283 19.5401 39.0793 19.608C38.7398 19.8117 38.3323 19.9475 37.9249 20.0154Z" fill="white" style="fill:white;fill-opacity:1;"/>
<path d="M6.82342 30.541L5.94063 31.2879C5.94063 31.2879 5.87272 31.2879 5.87272 31.3558C5.80482 31.4237 5.669 31.5596 5.60109 31.5596C5.46528 31.4917 5.39737 31.3558 5.32947 31.2879C5.26156 31.22 5.32947 31.22 5.32947 31.1521C5.87272 30.6768 6.48389 30.2014 7.09505 29.794C7.16296 29.7261 7.16296 29.794 7.23086 29.794C7.29877 29.9298 7.36668 29.9977 7.43458 30.0656C7.50249 30.1335 7.50249 30.2014 7.43458 30.2014C7.23086 30.6089 7.09505 31.0163 6.89133 31.4917C6.82342 31.6275 6.75552 31.7633 6.68761 31.8991C6.82342 31.8312 6.89133 31.7633 6.95923 31.6954C7.29877 31.4237 7.63831 31.1521 7.90993 30.8805C7.97784 30.8126 8.04575 30.8126 8.04575 30.8805C8.31738 31.1521 8.31738 31.1521 7.97784 31.4237C7.63831 31.6954 7.23086 32.0349 6.89133 32.3065C6.82342 32.3744 6.75552 32.3744 6.68761 32.4423C6.55179 32.5103 6.41598 32.714 6.41598 32.6461C6.28016 32.5103 6.14435 32.3744 6.00854 32.2386C6.00854 32.1707 6.00854 32.1707 6.00854 32.1028C6.21226 31.6275 6.41598 31.1521 6.6197 30.6768C6.82342 30.6089 6.82342 30.6089 6.82342 30.541Z" fill="white" style="fill:white;fill-opacity:1;"/>
<path d="M3.63181 16.8238C3.15646 16.7559 2.68111 16.688 2.13785 16.62C2.06994 16.62 2.00204 16.62 2.00204 16.4842C2.06994 16.1447 2.06994 16.0768 2.40948 16.1447C3.02064 16.2126 3.63181 16.3484 4.31088 16.4163C4.44669 16.4163 4.44669 16.4163 4.44669 16.5521C4.37878 16.9596 4.37878 16.9596 3.97134 17.0954C3.69971 17.1633 3.49599 17.2991 3.22436 17.367C2.95274 17.4349 2.74901 17.5028 2.47739 17.6387C2.68111 17.6387 2.88483 17.7066 3.08855 17.7066C3.42808 17.7745 3.69971 17.7745 4.03925 17.8424C4.10715 17.8424 4.17506 17.9103 4.17506 17.9782C4.10716 18.3177 4.10715 18.3177 3.76762 18.3177C3.15646 18.1819 2.54529 18.114 1.86622 18.0461C1.73041 18.0461 1.73041 17.9782 1.73041 17.9103C1.73041 17.5707 1.93413 17.2991 2.27366 17.2312C2.68111 17.0954 3.08855 16.9596 3.49599 16.8238C3.5639 16.8917 3.63181 16.8917 3.63181 16.8238Z" fill="white" style="fill:white;fill-opacity:1;"/>
<path d="M2.61319 22.9354C2.95273 22.8675 3.36017 22.7996 3.69971 22.7996C3.90343 22.7996 4.10715 22.7317 4.31087 22.7317C4.37878 22.7317 4.37878 22.7317 4.44668 22.7996C4.51459 23.207 4.51459 23.207 4.10715 23.2749C3.49598 23.3428 2.88482 23.4107 2.20575 23.4786C2.06994 23.4786 2.06994 23.4786 2.06994 23.3428C1.93412 23.0712 2.06994 22.7317 2.34156 22.5958C2.74901 22.3921 3.08854 22.0526 3.49598 21.8489C3.36017 21.8489 3.29226 21.9168 3.15645 21.9168C2.74901 21.9847 2.40947 22.0526 2.00203 22.0526C1.93412 22.0526 1.86622 22.0526 1.86622 21.9847C1.79831 21.5772 1.79831 21.6451 2.20575 21.5772C2.81691 21.5093 3.42808 21.4414 4.10715 21.3056C4.24296 21.3056 4.24296 21.3056 4.24296 21.4414C4.37878 21.713 4.24296 21.9847 3.97133 22.1205C3.69971 22.2563 3.49598 22.46 3.22436 22.6637C2.95273 22.7317 2.81691 22.8675 2.61319 22.9354Z" fill="white" style="fill:white;fill-opacity:1;"/>
<path d="M30.6588 6.09444C30.7267 6.02654 30.7946 5.95863 30.7946 5.95863C30.9983 5.61909 31.27 5.21165 31.4737 4.87211C31.5416 4.80421 31.5416 4.80421 31.6095 4.87211C31.949 5.07584 31.949 5.07584 31.7453 5.41537C31.4058 5.95863 31.0662 6.43398 30.7267 6.97723C30.6588 7.04514 30.6588 7.11305 30.523 7.04514C30.1834 6.77351 30.1834 6.77351 30.1834 6.36607C30.1834 5.95863 30.2514 5.41537 30.3193 4.94002C30.2514 4.94002 30.2514 5.00793 30.1834 5.07584C29.9118 5.48328 29.6402 5.89072 29.4365 6.23026C29.3686 6.29816 29.3686 6.36607 29.2327 6.29816C28.9611 6.09444 28.9611 6.09444 29.0969 5.82281C29.4365 5.27956 29.776 4.80421 30.1155 4.26095C30.1834 4.19305 30.2514 4.12514 30.3193 4.19304C30.3872 4.19304 30.3872 4.26095 30.4551 4.26095C30.7267 4.32886 30.7267 4.53258 30.7267 4.80421C30.7946 5.14374 30.7946 5.61909 30.6588 6.09444Z" fill="white" style="fill:white;fill-opacity:1;"/>
<path d="M38.8077 25.1764C38.1286 24.9726 37.4495 24.701 36.7705 24.4973C36.7025 24.4973 36.7025 24.4294 36.6346 24.4973C36.4309 24.9047 36.2951 25.3122 36.2951 25.7196C36.2951 25.7196 36.2951 25.7875 36.2951 25.8554V25.9233C36.4309 26.3987 36.8384 26.7382 37.3137 26.8061C37.7891 26.9419 38.2644 26.7382 38.4681 26.3308C38.6718 25.9912 38.8077 25.5838 38.8756 25.2443C38.8756 25.1764 38.8756 25.1764 38.8077 25.1764ZM38.3323 25.6517C38.2644 25.9912 38.0607 26.2629 37.7212 26.3308C37.3137 26.3987 36.9742 26.195 36.7705 25.8554C36.7025 25.7875 36.7025 25.6517 36.7025 25.5838C36.7025 25.5159 36.7025 25.5159 36.7025 25.448C36.7705 25.0405 36.7705 25.0405 37.11 25.1764C37.4495 25.3122 37.7891 25.3801 38.1286 25.5159C38.3323 25.5838 38.3323 25.5838 38.3323 25.6517Z" fill="white" style="fill:white;fill-opacity:1;"/>
<path d="M6.75554 29.047C6.61972 28.6396 6.34809 28.3 6.07647 28.0284C5.87274 27.8247 5.60112 27.7568 5.32949 27.7568C4.92205 27.7568 4.58251 27.9605 4.31088 28.2321C4.10716 28.4358 4.03925 28.7754 4.10716 29.047C4.24297 29.5224 4.4467 29.8619 4.71832 30.2693C4.78623 30.3372 4.78623 30.3372 4.85414 30.2693C5.4653 29.9298 6.07647 29.5903 6.68763 29.1828C6.75554 29.1149 6.75554 29.1149 6.75554 29.047ZM6.07647 28.9112C5.66902 29.1149 5.26158 29.3865 4.85414 29.5903C4.78623 29.6582 4.71832 29.5903 4.71832 29.5224C4.5146 29.3186 4.4467 28.9791 4.58251 28.7075C4.71832 28.4358 5.05786 28.2321 5.32949 28.2321C5.66902 28.2321 6.00856 28.4358 6.07647 28.7754C6.14437 28.8433 6.14437 28.8433 6.07647 28.9112Z" fill="white" style="fill:white;fill-opacity:1;"/>
<path d="M36.4988 9.96519C35.9556 9.76146 35.4123 9.82937 35.0049 10.2368C34.6653 10.5084 34.5295 10.9838 34.7332 11.3912C34.869 11.8666 35.2765 12.1382 35.7518 12.1382C36.2272 12.1382 36.7025 11.8666 36.9742 11.4591C37.3137 11.0517 37.11 10.3047 36.4988 9.96519C36.5667 10.0331 36.4988 10.0331 36.4988 9.96519ZM36.4309 11.3233C36.2272 11.527 35.9556 11.6629 35.6839 11.6629C35.4123 11.6629 35.1407 11.527 35.1407 11.2554C35.1407 11.1196 35.1407 11.0517 35.2086 10.9159C35.4123 10.5763 35.7518 10.3726 36.1593 10.3726C36.363 10.3726 36.5667 10.5084 36.7025 10.7122C36.7025 10.9838 36.6346 11.1875 36.4309 11.3233Z" fill="white" style="fill:white;fill-opacity:1;"/>
<path d="M32.7639 6.02655C32.3565 6.02655 31.949 6.29818 31.7453 6.63771C31.4737 6.97725 31.4737 7.38469 31.6774 7.72423C31.8811 8.13167 32.2886 8.4033 32.696 8.4033C33.1714 8.4033 33.6467 8.13167 33.8504 7.65632C34.1221 7.11306 33.9183 6.43399 33.3751 6.16236C33.1714 6.09446 32.9676 6.02655 32.7639 6.02655ZM32.696 7.92795C32.4923 7.92795 32.2207 7.86004 32.1528 7.65632C32.0849 7.4526 32.0849 7.18097 32.2886 6.97725C32.4244 6.84144 32.5602 6.70562 32.696 6.63771C32.8318 6.56981 33.0356 6.5019 33.1714 6.5019C33.3751 6.56981 33.5788 6.77353 33.5788 6.97725C33.443 7.4526 33.1035 7.86004 32.696 7.92795Z" fill="white" style="fill:white;fill-opacity:1;"/>
<path d="M15.176 2.15582C14.5648 2.15582 14.0216 2.63117 14.0216 3.24234C13.9537 3.92141 14.4969 4.46466 15.176 4.53257C15.7872 4.60048 16.3304 4.12513 16.3983 3.51396V3.44606C16.3983 2.76699 15.923 2.15582 15.176 2.15582ZM15.4476 4.12513C15.176 4.19303 14.9044 4.12513 14.7686 3.92141C14.5648 3.71769 14.4969 3.37815 14.5648 3.10652C14.5648 2.9028 14.7007 2.69908 14.9044 2.63117C15.1081 2.56326 15.3797 2.63117 15.5155 2.76699C15.7193 2.97071 15.7872 3.24234 15.8551 3.51396C15.7872 3.8535 15.7193 4.05722 15.4476 4.12513Z" fill="white" style="fill:white;fill-opacity:1;"/>
<path d="M29.4365 3.44604C29.0969 4.12511 28.8253 4.80418 28.4858 5.41534C28.4179 5.55116 28.4179 5.55116 28.2821 5.48325C28.2142 5.41534 28.1463 5.41534 28.0783 5.34743C27.8746 5.34743 27.9425 5.21162 28.0104 5.14371C28.1463 4.93999 28.2142 4.73627 28.35 4.46464C28.4179 4.39674 28.35 4.39674 28.2821 4.32883C28.0783 4.26092 27.8067 4.12511 27.603 4.0572C27.5351 3.98929 27.5351 4.0572 27.4672 4.12511C27.3314 4.32883 27.2635 4.60046 27.1276 4.80418C27.0597 4.87209 27.0597 4.93999 26.9918 4.87209C26.856 4.80418 26.7202 4.80418 26.6523 4.66836C26.5844 4.53255 26.7202 4.46464 26.7881 4.32883C27.0597 3.78557 27.3314 3.24232 27.5351 2.69906C27.603 2.56325 27.6709 2.56325 27.7388 2.63115C27.8067 2.69906 27.8746 2.69906 27.9425 2.76697C28.0783 2.76697 28.0783 2.90278 28.0104 2.97069C27.8746 3.17441 27.8067 3.37813 27.7388 3.58185C27.6709 3.64976 27.7388 3.64976 27.8067 3.71767C28.0104 3.78557 28.2821 3.92139 28.4858 3.98929C28.5537 4.0572 28.6216 3.98929 28.6216 3.92139C28.6895 3.71767 28.8253 3.51394 28.8932 3.31022C28.9611 3.24232 28.9611 3.17441 29.029 3.24232C29.097 3.31022 29.2328 3.31022 29.3007 3.37813C29.3686 3.37813 29.4365 3.37813 29.4365 3.44604Z" fill="white" style="fill:white;fill-opacity:1;"/>
<path d="M37.1779 12.5456C37.5174 12.5456 37.857 12.6814 38.0607 12.8851C38.3323 13.1567 38.4681 13.5642 38.536 13.9037C38.536 13.9716 38.536 14.0395 38.4002 14.0395C38.2644 14.0395 38.1965 14.1074 38.1286 14.0395C38.0607 14.0395 38.0607 13.9037 38.0607 13.7679C38.0607 13.7 37.9928 13.6321 37.9928 13.5642C37.9249 13.2246 37.6532 13.0209 37.3137 13.0209C36.9742 13.0209 36.6346 13.2246 36.4988 13.5642C36.363 13.8358 36.5667 14.0395 36.6346 14.2432C36.6346 14.2432 36.7025 14.3112 36.7025 14.2432C36.8384 14.1753 36.9742 14.1753 37.11 14.1074C37.1779 14.1074 37.11 14.0395 37.11 14.0395C37.11 13.9716 37.0421 13.9037 37.0421 13.8358C37.0421 13.7679 37.0421 13.7679 37.11 13.7C37.3816 13.5642 37.3816 13.5642 37.5174 13.8358C37.5853 13.9716 37.6532 14.1074 37.7212 14.3112C37.7212 14.3791 37.7212 14.3791 37.6532 14.447C37.3137 14.5828 36.9742 14.7186 36.7025 14.8544C36.6346 14.8544 36.5667 14.8544 36.4988 14.7865C36.1593 14.3791 35.9556 13.9037 36.0235 13.3605C36.0914 12.8851 36.4988 12.6135 36.9742 12.4777C37.0421 12.5456 37.11 12.5456 37.1779 12.5456Z" fill="white" style="fill:white;fill-opacity:1;"/>
<path d="M37.7211 27.9605C37.1779 27.6889 36.6346 27.4173 36.0914 27.1456C35.7518 26.9419 35.7518 26.9419 35.5481 27.2814C35.4802 27.4173 35.5481 27.4173 35.616 27.4852C35.8197 27.5531 36.0235 27.6889 36.2272 27.7568C36.2951 27.8247 36.363 27.8247 36.2951 27.8926C36.2272 28.0963 36.0235 28.1642 35.8197 28.0963C35.6839 28.0284 35.4802 28.0284 35.2765 27.9605C35.2086 27.9605 35.1407 27.9605 35.1407 28.0284C35.0728 28.1642 35.0049 28.3 34.937 28.4359C35.3444 28.4359 35.7518 28.7075 36.1593 28.5038C36.1593 28.5717 36.1593 28.6396 36.1593 28.7075C36.2951 29.047 36.6346 29.2507 36.9742 29.1149C37.11 29.047 37.2458 28.9791 37.3137 28.9112C37.5174 28.6396 37.7211 28.3679 37.789 28.0284C37.857 28.0284 37.857 28.0284 37.7211 27.9605ZM37.2458 28.4359C37.1779 28.5038 37.1779 28.6396 37.11 28.7075C37.0421 28.8433 36.9063 28.8433 36.7704 28.7754C36.6346 28.7075 36.5667 28.5717 36.5667 28.4359C36.5667 28.3 36.6346 28.1642 36.7025 28.0963C36.7704 28.0284 36.7704 28.0963 36.8383 28.0963C36.9742 28.1642 37.11 28.2321 37.2458 28.3C37.2458 28.3 37.2458 28.3 37.2458 28.4359Z" fill="white" style="fill:white;fill-opacity:1;"/>
<path d="M9.26809 7.92794C9.20019 8.26747 8.99646 8.60701 8.65693 8.74282C8.3853 8.87864 8.04577 8.87864 7.77414 8.67492C7.63832 8.60701 7.50251 8.47119 7.4346 8.33538C7.16297 8.06375 6.89135 7.86003 6.61972 7.5884C6.55181 7.52049 6.55181 7.45259 6.61972 7.38468C6.89135 7.04515 6.89135 7.04515 7.23088 7.38468C7.4346 7.5884 7.70623 7.86003 7.90995 8.06375C7.97786 8.13166 8.11367 8.26747 8.24949 8.26747C8.3853 8.33538 8.58902 8.26747 8.65693 8.19957C8.79274 8.06375 8.79274 7.92794 8.72484 7.72422C8.65693 7.5884 8.58902 7.45259 8.45321 7.38468C8.18158 7.11305 7.90995 6.84142 7.63832 6.5698C7.57042 6.50189 7.57042 6.43398 7.63832 6.36607C7.90995 6.09445 7.90995 6.09445 8.18158 6.36607C8.45321 6.6377 8.65693 6.84143 8.92856 7.11305C9.13228 7.38468 9.26809 7.65631 9.26809 7.92794Z" fill="white" style="fill:white;fill-opacity:1;"/>
<path d="M5.05784 25.7196C5.05784 25.6517 5.05784 25.6517 4.98993 25.5838C4.92202 25.3121 4.92202 25.3121 4.58249 25.3121C4.51458 25.3121 4.44667 25.3121 4.37876 25.3121C4.31086 25.3121 4.24295 25.3121 4.24295 25.2442C4.17504 25.1084 4.17504 24.9726 4.10714 24.8368C4.03923 24.7689 4.10714 24.701 4.17504 24.6331C4.31086 24.5652 4.37877 24.4972 4.51458 24.4293C4.58249 24.3614 4.58249 24.3614 4.58249 24.2935C4.51458 24.1577 4.51458 24.0219 4.44667 23.8182C3.7676 24.2935 3.08853 24.701 2.40946 25.1084C2.34155 25.1763 2.34155 25.1763 2.34155 25.2442C2.40946 25.38 2.47737 25.5838 2.47737 25.7196C2.47737 25.8554 2.54527 25.8554 2.61318 25.8554C2.8169 25.8554 3.02062 25.8554 3.22435 25.8554H4.85411C5.05784 25.7875 5.12574 25.7875 5.05784 25.7196ZM2.95272 25.3121L3.7676 24.7689C3.83551 24.9047 3.83551 25.1084 3.90342 25.2442C3.63179 25.3121 3.29225 25.3121 2.95272 25.3121Z" fill="white" style="fill:white;fill-opacity:1;"/>
<path d="M35.9556 30.4052C35.5481 29.8619 35.1407 29.3187 34.7332 28.8433C34.6653 28.9791 34.5974 29.047 34.5295 29.1829C34.4616 29.3187 34.4616 29.3187 34.5295 29.4545C34.6653 29.5903 34.8011 29.6582 34.8011 29.794C34.8011 29.9298 34.6653 30.0656 34.5295 30.2015C34.4616 30.3373 34.3937 30.3373 34.19 30.3373C33.7825 30.2015 33.7825 30.2015 33.5788 30.541C33.5109 30.6768 33.5109 30.6768 33.6467 30.7447C34.3258 30.9484 34.937 31.1522 35.616 31.4238C35.7518 31.4917 35.8877 31.4917 35.9556 31.288C36.0235 31.1522 36.2272 31.0163 36.2272 30.8805C36.1593 30.6768 36.0235 30.541 35.9556 30.4052ZM35.616 30.8126L34.8011 30.4731C34.869 30.3373 34.937 30.2694 35.0728 30.1336C35.1407 30.0657 35.1407 30.0657 35.2086 30.1336C35.2765 30.3373 35.4802 30.541 35.616 30.8126Z" fill="white" style="fill:white;fill-opacity:1;"/>
<path d="M39.283 22.8675C39.1472 22.7996 39.0114 22.7317 38.8077 22.6638L37.11 21.8489C37.11 21.9847 37.0421 22.0526 37.0421 22.1884C36.9742 22.3242 37.0421 22.3921 37.1779 22.46C37.5853 22.5959 37.5853 22.5959 37.5174 23.0712C37.5174 23.2749 37.4495 23.3428 37.2458 23.3428C36.8384 23.3428 36.8384 23.4107 36.7704 23.8182C36.7704 23.8861 36.7704 23.954 36.9063 23.954C37.5853 23.8182 38.3323 23.7503 39.0114 23.6824C39.1472 23.6824 39.2151 23.6145 39.2151 23.4786C39.2151 23.3428 39.283 23.207 39.283 23.0712C39.4188 22.9354 39.3509 22.8675 39.283 22.8675C39.3509 22.8675 39.3509 22.8675 39.283 22.8675ZM38.0607 23.2749C37.9928 23.2749 37.9928 23.2749 37.9928 23.207C37.9928 23.0712 38.0607 22.9354 38.0607 22.7996L38.9435 23.207C38.6039 23.207 38.3323 23.207 38.0607 23.2749Z" fill="white" style="fill:white;fill-opacity:1;"/>
<path d="M23.936 2.02005C23.6644 2.02005 23.4607 1.95214 23.2569 1.95214C23.1211 1.95214 23.1211 1.95214 23.1211 2.08796C23.0532 2.42749 23.0532 2.42749 23.3928 2.4954C23.5286 2.4954 23.5965 2.4954 23.7323 2.56331C23.8002 2.56331 23.936 2.56331 23.936 2.63121C23.936 2.76703 23.936 2.90284 23.8681 2.97075C23.8681 3.03865 23.8002 2.97075 23.7323 2.97075C23.5286 2.97075 23.3249 2.90284 23.1211 2.90284C23.0532 2.90284 22.9853 2.90284 22.9853 2.97075C22.9174 3.4461 22.9174 3.4461 23.3248 3.51401C23.4607 3.51401 23.6644 3.58191 23.8002 3.58191C23.8681 3.58191 23.8681 3.58191 23.8681 3.64982C23.8681 3.78563 23.8681 3.85354 23.8002 3.98935C23.8002 4.05726 23.7323 4.05726 23.6644 4.05726C23.2569 3.98935 22.7816 3.92145 22.3741 3.85354C22.3062 3.85354 22.3062 3.78563 22.3062 3.71773C22.3742 3.10656 22.51 2.42749 22.5779 1.81633C22.6458 1.47679 22.6458 1.47679 22.9174 1.5447C23.2569 1.61261 23.5965 1.61261 23.936 1.68051C24.0039 1.68051 24.0718 1.74842 24.0718 1.81633C24.0718 1.88424 24.0718 1.88423 24.0718 1.95214C24.1397 2.02005 24.0718 2.08796 23.936 2.02005Z" fill="white" style="fill:white;fill-opacity:1;"/>
<path d="M11.9844 3.37817C12.0523 3.37817 12.0523 3.44608 12.1202 3.51399C12.256 3.78562 12.256 3.78562 12.0523 3.92143C11.9165 3.98934 11.7128 4.12515 11.5769 4.19306C11.509 4.19306 11.509 4.26097 11.509 4.32887C11.7127 4.66841 11.7127 4.66841 12.0523 4.46469C12.1202 4.46469 12.1881 4.39678 12.1881 4.39678C12.4597 4.26097 12.4597 4.26096 12.5955 4.53259C12.6634 4.6005 12.6634 4.66841 12.5276 4.66841C12.3239 4.80422 12.1202 4.87213 11.9844 5.00794C11.9165 5.07585 11.9165 5.07585 11.9165 5.14376C11.9844 5.27957 12.0523 5.48329 12.1202 5.48329C12.1881 5.48329 12.3918 5.34748 12.4597 5.27957C12.5276 5.21167 12.7314 5.14376 12.8672 5.07585C12.9351 5.07585 12.9351 5.07585 13.003 5.07585C13.2067 5.34748 13.2067 5.34748 12.8672 5.5512L12.0523 6.02655C11.8486 6.16236 11.8486 6.16236 11.7807 5.95864C11.5769 5.61911 11.4411 5.27957 11.2374 5.00794C11.1016 4.73631 10.8979 4.46469 10.7621 4.19306C10.6941 4.12515 10.6941 4.05724 10.7621 4.05724C11.1695 3.85352 11.509 3.6498 11.9844 3.37817Z" fill="white" style="fill:white;fill-opacity:1;"/>
<path d="M4.92203 14.9903C4.92203 15.2619 4.78622 15.6015 4.5825 15.8052C4.51459 15.8731 4.44668 15.8731 4.37878 15.8052C4.31087 15.7373 4.17506 15.7373 4.17506 15.6694C4.17506 15.6015 4.24296 15.5335 4.31087 15.4656C4.37878 15.3298 4.44668 15.194 4.44668 15.0582C4.44668 14.9224 4.44669 14.8545 4.31087 14.7866C4.24296 14.7187 4.10715 14.7866 4.03924 14.8545C3.90343 14.9903 3.83552 15.0582 3.76761 15.194C3.6318 15.3977 3.29227 15.5335 2.95273 15.3977C2.6132 15.2619 2.40947 14.8545 2.54529 14.5149C2.61319 14.3112 2.6811 14.1075 2.81692 13.9038C2.88482 13.8359 2.88482 13.8359 2.95273 13.9038C3.02064 13.9717 3.15645 14.0396 3.22436 14.1075C3.29227 14.1754 3.15645 14.2433 3.08854 14.3791C3.02064 14.5149 3.02064 14.5828 2.95273 14.7187C2.95273 14.7866 2.95273 14.9224 3.08854 14.9224C3.15645 14.9903 3.29226 14.9224 3.36017 14.8545C3.49599 14.7187 3.56389 14.5828 3.69971 14.5149C3.83552 14.3112 4.10715 14.1754 4.31087 14.2433C4.71831 14.2433 4.98994 14.5149 4.92203 14.9903Z" fill="white" style="fill:white;fill-opacity:1;"/>
<path d="M33.5109 31.3558C33.3751 31.4237 33.2393 31.4916 33.1035 31.6275C33.0356 31.6954 32.9677 31.7633 32.8998 31.8312C32.8319 31.8991 32.8319 32.0349 32.8998 32.1028C32.9677 32.1707 33.1035 32.2386 33.1714 32.1707C33.2393 32.1707 33.3072 32.1028 33.443 32.1028C33.5788 32.0349 33.6467 31.967 33.7826 31.967C33.9863 31.8991 34.2579 31.967 34.4616 32.1707C34.5974 32.3744 34.6653 32.6461 34.5974 32.8498C34.4616 33.1893 34.19 33.461 33.9184 33.5968C33.8505 33.6647 33.8505 33.5968 33.7826 33.5289C33.7146 33.461 33.6467 33.3251 33.6467 33.2572C33.6467 33.1214 33.7826 33.1214 33.8505 33.0535C33.9184 32.9856 34.0542 32.9177 34.1221 32.7819C34.19 32.714 34.19 32.5782 34.1221 32.5103C34.0542 32.4423 33.9863 32.4423 33.8505 32.4423C33.7146 32.5103 33.5109 32.5782 33.3072 32.6461C33.1035 32.7819 32.8319 32.714 32.6281 32.5782C32.3565 32.3744 32.2886 32.1028 32.4244 31.8312C32.5602 31.4916 32.8319 31.1521 33.1714 31.0163C33.2393 31.0163 33.2393 31.0163 33.3072 31.0163C33.3751 31.1521 33.443 31.2879 33.5109 31.3558Z" fill="white" style="fill:white;fill-opacity:1;"/>
<path d="M26.5165 2.69906C26.3128 2.56324 26.0411 2.49533 25.8374 2.49533C25.7016 2.49533 25.6337 2.49534 25.5658 2.56324C25.2942 2.76696 25.1583 3.1065 25.1583 3.44603C25.2263 3.78557 25.43 3.98929 25.7016 4.0572C25.7695 4.0572 25.9053 4.1251 25.9732 4.1251C26.109 4.1251 26.109 4.19301 26.109 4.26092C26.109 4.53255 26.109 4.53255 25.7695 4.53255C25.6337 4.53255 25.43 4.46464 25.2942 4.39673C24.8188 4.26092 24.5472 3.85348 24.5472 3.37813C24.5472 2.83487 24.8188 2.35952 25.2942 2.1558C25.7695 2.01999 26.2449 2.01998 26.6523 2.29161C26.7202 2.35952 26.7202 2.35952 26.6523 2.42743C26.6523 2.49533 26.5844 2.63115 26.5165 2.69906Z" fill="white" style="fill:white;fill-opacity:1;"/>
<path d="M17.2811 3.98937C17.2132 3.98937 17.2132 3.92146 17.2811 3.98937C17.0774 3.24239 17.0095 2.63123 16.8737 1.95216C16.8058 1.68053 16.8058 1.68053 17.0774 1.68053C17.4169 1.61262 17.7565 1.54471 18.096 1.47681C18.1639 1.47681 18.2318 1.47681 18.2318 1.54471C18.2997 1.88425 18.2997 1.88425 17.9602 1.88425C17.8244 1.88425 17.6206 1.95216 17.4848 1.95216C17.349 1.95216 17.349 2.02006 17.4169 2.08797C17.4169 2.15588 17.4848 2.29169 17.4848 2.3596C17.4848 2.49541 17.5527 2.49541 17.6885 2.49541C17.8923 2.42751 18.096 2.42751 18.2997 2.42751C18.3676 2.42751 18.4355 2.42751 18.4355 2.49541C18.5034 2.83495 18.5034 2.83495 18.1639 2.90286C18.0281 2.90286 17.8923 2.97076 17.8244 2.97076C17.6885 2.97076 17.6885 3.03867 17.6885 3.17448C17.7565 3.3782 17.7565 3.58193 17.8244 3.85355C17.8244 3.92146 17.8244 3.98937 17.6885 3.98937C17.4848 3.98937 17.4169 3.98937 17.2811 3.98937Z" fill="white" style="fill:white;fill-opacity:1;"/>
<path d="M38.1286 16.0768L39.0793 16.2126C39.1472 16.2126 39.1472 16.2126 39.2151 16.2805C39.283 16.4163 39.283 16.62 39.3509 16.8237C39.0114 16.7558 38.7398 16.6879 38.4002 16.5521C37.9928 16.4163 37.5853 16.4163 37.1779 16.5521C36.8384 16.6879 36.8384 16.62 36.7704 16.2805C36.7025 16.1447 36.7704 16.0768 36.9063 16.0768H36.9742C37.4495 16.0089 37.9249 15.8051 38.2644 15.3977C38.4681 15.194 38.6718 15.0582 38.8756 14.8544C38.9435 14.9902 38.9435 15.194 39.0114 15.3298C39.0793 15.3977 39.0114 15.5335 38.9435 15.5335C38.6718 15.7372 38.4002 15.9409 38.1286 16.0768Z" fill="white" style="fill:white;fill-opacity:1;"/>
<path d="M7.50249 10.1688C7.43458 10.3047 7.29877 10.4405 7.23086 10.5763C7.23086 10.5763 7.16295 10.5763 7.16295 10.5084C6.68761 10.2368 6.28016 9.89722 5.80481 9.55768C5.669 9.48977 5.60109 9.48977 5.60109 9.62559C5.60109 9.69349 5.53318 9.69349 5.53318 9.7614C5.46528 9.82931 5.39737 9.96512 5.32946 9.96512C5.19365 9.89721 5.12574 9.82931 4.98993 9.7614C4.92202 9.7614 4.98993 9.6935 4.98993 9.6935C5.32946 9.21815 5.669 8.8107 5.94063 8.33535C6.00853 8.26745 6.00853 8.26745 6.07644 8.33535C6.14435 8.40326 6.21225 8.47117 6.28016 8.47117C6.34807 8.53908 6.34807 8.53907 6.28016 8.60698C6.21225 8.74279 6.14435 8.8107 6.00853 8.94652C5.94063 9.01442 5.94063 9.08233 6.00853 9.15024C6.48388 9.48977 6.89133 9.82931 7.36668 10.1688C7.50249 10.1009 7.50249 10.1009 7.50249 10.1688Z" fill="white" style="fill:white;fill-opacity:1;"/>
<path d="M20.6765 2.69908C20.6765 2.42746 20.6765 2.15583 20.6765 1.8842C20.6765 1.81629 20.6765 1.74838 20.5407 1.74838C20.4049 1.74838 20.269 1.74838 20.1332 1.74838C20.0653 1.74838 19.9974 1.74838 20.0653 1.68048C20.0653 1.34094 20.0653 1.34094 20.4049 1.34094C20.8802 1.34094 21.2877 1.34094 21.763 1.34094C21.8988 1.34094 21.8988 1.34094 21.8988 1.47676C21.8988 1.81629 21.8988 1.81629 21.5593 1.81629C21.2197 1.81629 21.2197 1.81629 21.2197 2.15583C21.2197 2.63118 21.2197 3.10653 21.2197 3.58188C21.2197 3.64978 21.2197 3.71769 21.0839 3.71769C20.6765 3.71769 20.6765 3.71769 20.6765 3.31025C20.6765 3.10653 20.6765 2.9028 20.6765 2.69908Z" fill="white" style="fill:white;fill-opacity:1;"/>
<path d="M3.49597 13.2247C3.36015 13.1568 3.29225 13.0889 3.15643 13.0889C3.08853 13.0889 3.15643 13.0209 3.15643 12.953C3.36015 12.4777 3.63178 11.9344 3.8355 11.4591C3.8355 11.3912 3.90341 11.3912 3.97132 11.3912C4.31085 11.527 4.31085 11.527 4.17504 11.8665C4.03922 12.1382 4.03922 12.1382 4.31085 12.274C4.7862 12.4777 5.19364 12.6814 5.66899 12.8851C5.7369 12.953 5.80481 12.953 5.7369 13.0209C5.66899 13.1568 5.66899 13.2926 5.53318 13.3605C5.39737 13.4284 5.32946 13.2926 5.19364 13.2247C4.7862 13.0209 4.37876 12.8172 3.90341 12.6135C3.8355 12.5456 3.7676 12.6135 3.7676 12.6814C3.69969 12.8172 3.63178 12.953 3.63178 13.0889C3.56388 13.1568 3.56387 13.2247 3.49597 13.2247Z" fill="white" style="fill:white;fill-opacity:1;"/>
<path d="M10.4904 7.11305C10.4904 7.11305 10.4225 7.04514 10.4225 6.97724L9.47181 5.75491C9.33599 5.55119 9.33599 5.55119 9.20018 5.687C9.13227 5.75491 8.99646 5.82282 8.92855 5.89072C8.86064 5.95863 8.86064 5.95863 8.79274 5.89072C8.58902 5.6191 8.58902 5.6191 8.86064 5.41538C9.20018 5.14375 9.60762 4.87212 9.94716 4.60049C10.0151 4.53258 10.083 4.53258 10.083 4.60049C10.2867 4.87212 10.2867 4.87212 10.0151 5.07584C9.74343 5.27956 9.74344 5.27956 9.94716 5.55119C10.2188 5.95863 10.5583 6.36607 10.8299 6.70561C10.8979 6.77352 10.8979 6.84142 10.8299 6.90933C10.762 6.97724 10.6941 7.04515 10.4904 7.11305C10.5583 7.11305 10.5583 7.11305 10.4904 7.11305Z" fill="white" style="fill:white;fill-opacity:1;"/>
<path d="M35.0049 7.86005C35.1407 7.99586 35.2765 8.13167 35.3444 8.19958C35.4123 8.26749 35.3444 8.26749 35.2765 8.3354C34.869 8.67493 34.3937 9.01447 33.9863 9.354C33.9183 9.42191 33.9183 9.48982 33.9863 9.55772C34.1221 9.76144 34.2579 9.89726 34.3937 10.101C34.4616 10.1689 34.4616 10.1689 34.3937 10.2368C34.1221 10.4405 34.1221 10.4405 33.9184 10.1689C33.7146 9.89726 33.5109 9.62563 33.3072 9.354C33.2393 9.2861 33.2393 9.28609 33.3072 9.21819C33.7825 8.81075 34.3937 8.3354 35.0049 7.86005Z" fill="white" style="fill:white;fill-opacity:1;"/>
<path d="M1.86622 19.608C1.79832 19.608 1.73041 19.54 1.73041 19.4721C1.73041 19.0647 1.73041 19.0647 2.13785 19.0647C2.74901 19.1326 3.36018 19.1326 4.03925 19.1326C4.17506 19.1326 4.17506 19.1326 4.17506 19.2684C4.17506 19.3363 4.17506 19.4042 4.17506 19.4042C4.17506 19.6759 4.17506 19.6759 3.90343 19.608C3.5639 19.608 3.29227 19.608 2.95274 19.54L1.86622 19.608Z" fill="white" style="fill:white;fill-opacity:1;"/>
<path d="M6.55179 11.527C6.48388 11.6629 6.41598 11.7987 6.28016 11.9345C6.28016 12.0024 6.21225 11.9345 6.21225 11.9345C5.60109 11.595 4.98993 11.1875 4.31086 10.848C4.24295 10.848 4.24295 10.7801 4.24295 10.7122C4.44667 10.3726 4.44667 10.3726 4.78621 10.5763C5.32946 10.9159 5.80481 11.1875 6.34807 11.527C6.48388 11.4591 6.55179 11.4591 6.55179 11.527Z" fill="white" style="fill:white;fill-opacity:1;"/>
<path d="M5.53319 26.7382C5.53319 26.8061 5.46528 26.8061 5.53319 26.7382C4.78621 27.0778 4.10714 27.3494 3.49598 27.621C3.42807 27.621 3.36016 27.621 3.36016 27.5531C3.15644 27.1457 3.15644 27.1457 3.56389 27.0098C4.10714 26.8061 4.7183 26.5345 5.26156 26.2629C5.39737 26.195 5.39738 26.2629 5.46528 26.3308C5.39738 26.4666 5.46528 26.6024 5.53319 26.7382Z" fill="white" style="fill:white;fill-opacity:1;"/>
<path d="M9.33597 32.035C9.33597 32.1029 9.26806 32.1029 9.33597 32.035C8.79272 32.6461 8.24946 33.1215 7.77411 33.6648C7.7062 33.7327 7.6383 33.7327 7.6383 33.6648C7.57039 33.5289 7.36667 33.461 7.36667 33.3931C7.36667 33.3252 7.50248 33.1894 7.6383 33.1215C8.04574 32.7141 8.52109 32.2387 8.92853 31.8313C8.99644 31.7634 9.06434 31.7634 9.13225 31.8313C9.20016 31.8992 9.26806 31.9671 9.33597 32.035C9.26806 31.9671 9.26806 31.9671 9.33597 32.035Z" fill="white" style="fill:white;fill-opacity:1;"/>
<path d="M9.81134 34.5475C9.60762 34.5475 9.4718 34.4117 9.4718 34.2079C9.4718 34.0042 9.60762 33.8684 9.81134 33.8684C10.0151 33.8684 10.1509 34.0042 10.1509 34.2079C10.1509 34.4117 10.0151 34.5475 9.81134 34.5475Z" fill="white" style="fill:white;fill-opacity:1;"/>
<path d="M31.5416 34.5475C31.3379 34.5475 31.2021 34.4117 31.2021 34.2079C31.2021 34.0042 31.3379 33.8684 31.5416 33.8684C31.7453 33.8684 31.8811 34.0042 31.8811 34.2079C31.8811 34.4117 31.7453 34.5475 31.5416 34.5475Z" fill="white" style="fill:white;fill-opacity:1;"/>
<path d="M26.4486 34.955C26.5844 34.955 26.6523 35.0229 26.7881 35.0908L26.856 35.1587H26.7881C26.5844 35.0908 26.4486 35.1587 26.3807 35.3624C26.3128 35.5661 26.3807 35.7019 26.5844 35.8377C26.6523 35.8377 26.7202 35.8377 26.6523 35.9736C26.5844 36.1094 26.5165 35.9736 26.5165 35.9736C26.3807 35.9057 26.3128 35.8377 26.177 35.7019C26.0412 35.5661 26.0412 35.4303 26.1091 35.2266C26.1091 35.0229 26.3128 34.955 26.4486 34.955Z" fill="#FCFCFE" style="fill:#FCFCFE;fill:color(display-p3 0.9882 0.9882 0.9961);fill-opacity:1;"/>
<path d="M17.8923 36.2452C17.8923 36.0414 18.0281 35.8377 18.2318 35.8377C18.4355 35.8377 18.7072 35.9735 18.7751 36.1772V36.2452C18.7751 36.3131 18.7072 36.2452 18.7072 36.2452C18.6393 36.1772 18.5034 36.1093 18.4355 36.1093C18.2318 36.1093 18.096 36.3131 18.1639 36.5168C18.1639 36.5847 18.1639 36.5847 18.1639 36.6526C18.1639 36.7205 18.2318 36.7205 18.2318 36.7884C18.2318 36.8563 18.2318 36.8563 18.2318 36.8563C18.2318 36.8563 18.1639 36.8563 18.1639 36.7884C17.9602 36.5847 17.8923 36.381 17.8923 36.2452Z" fill="#FCFCFE" style="fill:#FCFCFE;fill:color(display-p3 0.9882 0.9882 0.9961);fill-opacity:1;"/>
<path d="M24.9546 38.554C25.0225 38.554 24.9546 38.4861 25.0225 38.4182C25.0225 38.4182 25.0225 38.4861 24.9546 38.554Z" fill="#C29D9B" style="fill:#C29D9B;fill:color(display-p3 0.7608 0.6157 0.6078);fill-opacity:1;"/>
<path d="M35.9556 20.0154C35.9556 22.1885 35.5481 24.2936 34.6653 26.2629C34.1221 27.5531 33.3072 28.7754 32.4244 29.862C30.2514 32.4424 27.2635 34.208 23.936 34.8871C19.5221 35.8378 14.9723 34.8192 11.3732 32.035C9.53973 30.6089 8.04577 28.8433 7.02717 26.8061C6.21228 25.2443 5.66902 23.5466 5.53321 21.781C5.19367 18.9289 5.66902 16.0768 6.89135 13.4963C7.84205 11.4591 9.33601 9.62565 11.1016 8.1996C12.3239 7.18099 13.75 6.36611 15.3118 5.82285C18.0281 4.80425 21.016 4.60053 23.8002 5.14378C27.0597 5.82285 29.9797 7.52053 32.1528 9.96518C34.0542 12.0703 35.2765 14.5829 35.7519 17.3671C35.8877 18.3178 35.9556 19.2005 35.9556 20.0154Z" fill="#D6A64F" style="fill:#D6A64F;fill:color(display-p3 0.8392 0.6510 0.3098);fill-opacity:1;"/>
<path d="M23.8681 37.6713C23.8681 37.7392 23.8681 37.8071 23.8681 37.8071C23.8002 37.8071 23.8002 37.7392 23.8681 37.6713Z" fill="#641514" style="fill:#641514;fill:color(display-p3 0.3922 0.0824 0.0784);fill-opacity:1;"/>
<path d="M23.8681 37.6713C23.8681 37.7392 23.8681 37.8071 23.8681 37.8071C23.7323 37.8071 23.7323 37.7392 23.8681 37.6713Z" fill="white" style="fill:white;fill-opacity:1;"/>
<path d="M20.7444 29.5224C18.9109 29.5224 17.1453 29.2508 15.4476 28.5717C13.8179 27.9605 12.3918 27.0098 11.1695 25.7196C10.3546 24.8368 9.74345 23.8182 9.40391 22.6638C9.33601 22.4601 9.40391 22.1884 9.60763 21.9847C9.81136 21.781 10.0151 21.6452 10.2867 21.5773C11.1016 21.2377 11.9165 21.034 12.7314 20.8303C14.1574 20.5587 15.5835 20.3549 17.0095 20.287C17.1453 20.287 17.1453 20.2191 17.0774 20.1512C16.7379 19.4042 16.5342 18.5893 16.4662 17.7745C16.3304 16.4842 16.4662 15.194 16.8737 13.9717C17.2132 12.8172 17.7565 11.6628 18.4356 10.7121C18.7751 10.1689 19.1146 9.62562 19.4542 9.08236C19.9295 8.33538 20.269 7.5205 20.4049 6.63771C20.4049 6.50189 20.4728 6.50189 20.5407 6.50189C20.8123 6.50189 20.8123 6.50189 20.8123 6.77352C21.016 7.72422 21.3556 8.60701 21.8988 9.4219C22.3063 10.101 22.7816 10.78 23.189 11.4591C23.3928 11.7307 23.5286 12.0703 23.6644 12.3419C24.2077 13.2926 24.5472 14.3791 24.683 15.4656C24.9546 17.0275 24.7509 18.6573 24.1397 20.1512C24.0718 20.3549 24.0718 20.3549 24.2756 20.3549C26.0411 20.4907 27.8746 20.7624 29.5723 21.1698C30.1156 21.3056 30.5909 21.5094 31.0663 21.7131C31.3379 21.8489 31.6095 22.0526 31.6774 22.3921C31.6774 22.4601 31.6774 22.528 31.6774 22.5959C31.27 24.0219 30.4551 25.3801 29.3686 26.3987C28.9611 26.8061 28.4858 27.1456 28.0104 27.4852C26.5165 28.4359 24.9546 29.047 23.257 29.3187C22.9853 29.3866 22.7137 29.3866 22.3742 29.4545C21.8988 29.5224 21.3556 29.5903 20.7444 29.5224Z" fill="#181412" style="fill:#181412;fill:color(display-p3 0.0941 0.0784 0.0706);fill-opacity:1;"/>
<path d="M12.5276 29.5903C13.0709 29.6582 13.6141 29.794 14.1574 29.8619C15.3118 30.0656 16.4662 30.2693 17.6206 30.4731C17.6886 30.4731 17.7565 30.4731 17.8244 30.541L17.2132 31.22L22.7137 31.6954L22.1704 32.1707L27.3993 32.3745V32.4424L20.4048 33.1214L21.2876 32.3066L15.5834 31.7633L16.5341 31.0842L12.5276 29.5903Z" fill="white" style="fill:white;fill-opacity:1;"/>
<path d="M12.5276 29.5903H12.3918C12.3918 29.5224 12.4597 29.5224 12.5276 29.5903Z" fill="#F2E1C5" style="fill:#F2E1C5;fill:color(display-p3 0.9490 0.8824 0.7725);fill-opacity:1;"/>
<path d="M10.1509 23.2749C10.8299 23.4786 11.5769 23.6823 12.256 23.8182C12.8672 23.954 13.4783 24.0219 14.0895 24.0898C14.8365 24.1577 15.5834 24.2256 16.3304 24.2256C17.349 24.2256 18.2997 24.0219 19.2504 23.8182C19.7258 23.6823 20.1332 23.6144 20.5407 23.4107C20.6086 23.4107 20.6765 23.4107 20.7444 23.4107C21.6272 23.7503 22.51 23.954 23.3928 24.0898C23.8002 24.1577 24.2076 24.1577 24.6151 24.2256C25.0904 24.2935 25.5658 24.2256 26.0411 24.2256C26.6523 24.1577 27.2635 24.0898 27.8067 24.0219C28.6216 23.8861 29.4365 23.7503 30.2514 23.5465C30.523 23.4786 30.7267 23.4107 30.9983 23.2749C30.9304 23.5465 30.7946 23.8182 30.6588 24.0219C29.9797 25.2442 29.029 26.2628 27.8746 27.0098C26.5165 27.9605 24.9546 28.5717 23.3248 28.9112C22.5779 29.047 21.8309 29.1149 21.0839 29.1828C20.2011 29.2507 19.3862 29.1828 18.5034 29.047C17.2811 28.9112 16.0588 28.5717 14.9044 28.0963C13.8858 27.6889 12.9351 27.1456 12.1202 26.3986C11.6448 25.9912 11.2374 25.5837 10.8299 25.1084C10.762 24.5651 10.4225 23.954 10.1509 23.2749Z" fill="#781E19" style="fill:#781E19;fill:color(display-p3 0.4706 0.1176 0.0980);fill-opacity:1;"/>
<path d="M22.442 17.1633C22.6458 16.7558 22.7137 16.2805 22.6458 15.8051C22.6458 15.4656 22.51 15.0582 22.51 14.7186C22.442 14.1754 22.3741 13.6321 22.442 13.0889C22.442 13.021 22.442 12.953 22.442 12.953C22.51 12.8851 22.442 12.7493 22.3741 12.6814C22.3062 12.6135 22.1704 12.6135 22.1025 12.6814C21.9667 12.7493 21.8988 12.8851 21.763 12.953L21.4234 12.1382L20.9481 12.8172C20.8123 12.7493 20.8123 12.5456 20.6765 12.5456C20.5406 12.5456 20.4727 12.6814 20.4048 12.7493L19.9295 12.1382C19.7937 12.4098 19.6579 12.6814 19.522 12.953C19.3862 12.8851 19.3183 12.7493 19.1825 12.6814C19.1146 12.6135 18.9788 12.5456 18.9109 12.6135C18.7751 12.6814 18.7751 12.7493 18.843 12.8851C18.9109 13.1568 18.9109 13.4963 18.843 13.7679C18.843 14.3112 18.7751 14.7865 18.6393 15.2619C18.5034 15.8731 18.5713 16.5521 18.7751 17.0954C18.5034 17.0954 18.2318 17.1633 18.0281 17.2312C17.8923 17.2991 17.8244 17.367 17.8244 17.4349C17.8244 17.5707 17.8923 17.5707 18.0281 17.6386C18.1639 17.6386 18.2318 17.7744 18.2997 17.9103C18.3676 17.9782 18.2997 17.9782 18.2318 18.0461C18.096 18.114 18.0281 18.1819 17.8923 18.2498C17.7565 18.3856 17.7565 18.5214 17.8923 18.5893C18.0281 18.7251 18.2318 18.7931 18.3676 18.9289C18.6393 19.2005 19.0467 19.3363 19.3862 19.3363C19.4541 19.3363 19.522 19.3363 19.522 19.4042C19.5899 19.7438 19.7937 20.0154 20.0653 20.287C20.1332 20.3549 20.2011 20.4228 20.2011 20.4907C20.2011 21.3056 20.2011 22.0526 20.2011 22.8675C20.2011 23.0033 20.2011 23.0033 20.0653 23.0712C19.8616 23.1391 19.7258 23.207 19.522 23.207C19.4541 23.207 19.3862 23.2749 19.3183 23.1391C18.5034 22.1205 17.8923 21.034 17.349 19.8796C16.5341 17.8424 16.5341 15.5335 17.349 13.4284C17.6886 12.4777 18.1639 11.5949 18.7072 10.78C18.9109 10.4405 19.1146 10.1689 19.3183 9.82932C19.8616 9.08235 20.269 8.26746 20.5406 7.45258C20.6086 7.58839 20.6086 7.6563 20.6765 7.79211C20.9481 8.53909 21.3555 9.28606 21.8309 9.96513C22.3741 10.78 22.9174 11.5949 23.3248 12.4777C23.8002 13.4284 24.0718 14.3791 24.2755 15.3977C24.4793 16.8917 24.3434 18.3856 23.7323 19.7438C23.189 20.8982 22.5779 21.9847 21.763 23.0033C21.6951 23.0712 21.6272 23.0712 21.5593 23.0712C21.4234 23.0033 21.2197 22.9354 21.016 22.9354C20.9481 22.9354 20.8802 22.8675 20.8802 22.7996C20.8802 21.9847 20.8802 21.1698 20.8802 20.3549C20.8802 20.287 20.8802 20.2191 20.9481 20.1512C21.2197 19.9475 21.4234 19.6079 21.5593 19.2684C21.5593 19.2005 21.6272 19.2005 21.6951 19.2005C22.0346 19.2005 22.3741 19.0647 22.6458 18.861C22.7816 18.7251 22.9853 18.5893 23.189 18.5214C23.2569 18.4535 23.3248 18.3856 23.2569 18.2498L23.189 18.1819C23.0532 18.114 22.9174 17.9782 22.8495 17.9103C22.7816 17.8424 22.7816 17.8424 22.7816 17.7744C22.8495 17.6386 22.9174 17.5707 23.1211 17.5707C23.2569 17.5707 23.3248 17.5028 23.3248 17.367C23.3248 17.2991 23.2569 17.1633 23.189 17.1633C22.9853 17.1633 22.7137 17.1633 22.442 17.1633Z" fill="white" style="fill:white;fill-opacity:1;"/>
<path d="M22.2383 23.4107C22.5778 22.9354 22.9174 22.46 23.2569 21.9847C23.3927 21.781 23.5285 21.5093 23.6644 21.2377C23.8002 21.1019 23.8681 20.9661 23.936 20.7624C23.936 20.6945 24.0718 20.6945 24.0718 20.6945C24.683 20.7624 25.362 20.8303 25.9732 20.8982C27.1955 21.034 28.4179 21.2377 29.5723 21.5772C30.0476 21.7131 30.4551 21.8489 30.8625 22.0526C30.9983 22.1205 31.1341 22.1884 31.202 22.2563C31.4737 22.46 31.4737 22.5959 31.202 22.7317C31.0662 22.7996 30.9304 22.8675 30.7946 22.9354C30.1155 23.1391 29.4365 23.3428 28.6895 23.4107C27.7388 23.5466 26.7881 23.6824 25.8374 23.7503C25.1583 23.7503 24.4792 23.7503 23.8681 23.6824C23.3927 23.6145 22.8495 23.5466 22.3741 23.4107C22.3741 23.4107 22.3062 23.4107 22.2383 23.4107Z" fill="white" style="fill:white;fill-opacity:1;"/>
<path d="M15.8551 23.7503C15.0402 23.7503 14.2253 23.6824 13.4783 23.5466C12.5955 23.4108 11.6448 23.275 10.8299 23.0033C10.5583 22.9354 10.3546 22.8675 10.083 22.7317C9.87925 22.5959 9.87925 22.4601 10.083 22.3243C10.4225 22.1205 10.762 21.9168 11.1695 21.781C12.1881 21.4415 13.2746 21.2377 14.3611 21.1019C15.3118 20.9661 16.3304 20.8303 17.2811 20.7624C17.349 20.7624 17.4169 20.7624 17.4848 20.8303C17.9602 21.7131 18.4355 22.528 19.0467 23.275C19.1146 23.4108 19.1146 23.4108 18.9788 23.4108C17.8923 23.6824 16.8737 23.7503 15.8551 23.7503Z" fill="white" style="fill:white;fill-opacity:1;"/>
<path d="M20.6765 13.0889C21.1518 13.8358 21.4235 14.7186 21.6272 15.6014C21.763 16.1447 21.6951 16.62 21.5593 17.0954C21.4235 17.4349 21.2876 17.7065 21.016 17.9103C20.8123 18.0461 20.5407 18.0461 20.4048 17.9103C20.0653 17.5707 19.7937 17.0954 19.7258 16.62C19.6579 15.6693 19.8616 14.6507 20.3369 13.7679C20.4048 13.5642 20.5407 13.3605 20.6765 13.0889Z" fill="#CC111B" style="fill:#CC111B;fill:color(display-p3 0.8000 0.0667 0.1059);fill-opacity:1;"/>
<path d="M20.7444 18.4535C21.1518 18.4535 21.4235 18.793 21.4235 19.2005C21.4235 19.3363 21.3556 19.4042 21.3556 19.54C21.2197 19.7437 21.016 19.9474 20.8123 20.1512C20.7444 20.2191 20.7444 20.1512 20.6765 20.1512C20.5407 20.0154 20.337 19.8116 20.2011 19.6758C19.9295 19.3363 20.0653 18.8609 20.4049 18.5893C20.4049 18.5893 20.4049 18.5893 20.4728 18.5893C20.5407 18.5214 20.6086 18.4535 20.7444 18.4535Z" fill="#CC111B" style="fill:#CC111B;fill:color(display-p3 0.8000 0.0667 0.1059);fill-opacity:1;"/>
<path d="M22.0346 13.2926C22.0346 14.1754 22.1025 15.0582 22.2383 15.8731C22.3062 16.2805 22.1704 16.7559 21.9667 17.0954C21.9667 16.9596 22.0346 16.8238 22.0346 16.688C22.1025 15.8731 21.9667 15.0582 21.6272 14.2433C21.6272 14.1754 21.5593 14.1075 21.5593 14.1075C21.4235 13.768 21.4235 13.768 21.6951 13.4963C21.8309 13.4284 21.8988 13.3605 22.0346 13.2926Z" fill="#CC111B" style="fill:#CC111B;fill:color(display-p3 0.8000 0.0667 0.1059);fill-opacity:1;"/>
<path d="M19.2504 17.0275C19.1146 16.7558 19.0467 16.4842 19.0467 16.1447C19.0467 15.7372 19.1146 15.3977 19.1825 14.9903C19.2504 14.447 19.3183 13.9037 19.3183 13.3605C19.3183 13.2926 19.3183 13.2926 19.3183 13.2247C19.522 13.3605 19.6579 13.4963 19.7937 13.6321C19.8616 13.7 19.8616 13.7679 19.7937 13.8358C19.5899 14.2433 19.4541 14.7186 19.3183 15.194C19.1825 15.7372 19.1825 16.3484 19.2504 16.8916C19.3183 16.9596 19.3183 17.0275 19.2504 17.0275Z" fill="#CC111B" style="fill:#CC111B;fill:color(display-p3 0.8000 0.0667 0.1059);fill-opacity:1;"/>
<path d="M18.5034 18.4535C18.9109 18.1819 19.3862 18.114 19.8616 18.3177C19.9295 18.3177 19.9974 18.3856 19.9295 18.4535C19.7937 18.5894 19.7258 18.7252 19.7258 18.861C19.7258 18.9968 19.6579 18.9968 19.5221 18.9968C19.2504 18.9968 18.9788 18.861 18.7751 18.6573L18.5034 18.4535Z" fill="#CC111B" style="fill:#CC111B;fill:color(display-p3 0.8000 0.0667 0.1059);fill-opacity:1;"/>
<path d="M21.4235 18.3177C21.8309 18.1819 22.3742 18.1819 22.7816 18.4535C22.8495 18.4535 22.8495 18.5214 22.7816 18.5214C22.5779 18.7931 22.2383 18.9289 21.8988 18.9968C21.8309 18.9968 21.763 18.9968 21.763 18.9289C21.6951 18.6573 21.5593 18.4535 21.4235 18.3177Z" fill="#CC111B" style="fill:#CC111B;fill:color(display-p3 0.8000 0.0667 0.1059);fill-opacity:1;"/>
<path d="M18.6393 17.5707C18.843 17.4349 19.1146 17.5707 19.2504 17.7744C19.1825 17.7744 19.1146 17.7744 19.0467 17.7744C18.7751 17.8423 18.7751 17.8423 18.6393 17.5707Z" fill="#C7121B" style="fill:#C7121B;fill:color(display-p3 0.7804 0.0706 0.1059);fill-opacity:1;"/>
<path d="M22.0346 17.7744C22.1704 17.5028 22.4421 17.5707 22.6458 17.5707C22.51 17.9103 22.51 17.9103 22.0346 17.7744Z" fill="#C7121B" style="fill:#C7121B;fill:color(display-p3 0.7804 0.0706 0.1059);fill-opacity:1;"/>
<path d="M21.3555 12.8851C21.4234 13.0209 21.5593 13.0889 21.4234 13.2247C21.3555 13.2247 21.3555 13.3605 21.2876 13.2926C21.2197 13.2247 21.1518 13.1568 21.2197 13.0889C21.2197 13.0889 21.2876 13.0209 21.3555 12.8851Z" fill="#C4111C" style="fill:#C4111C;fill:color(display-p3 0.7686 0.0667 0.1098);fill-opacity:1;"/>
<path d="M20.1332 13.1567C20.1332 13.2247 20.0653 13.2926 19.9974 13.3605C19.9974 13.3605 19.9295 13.2926 19.8616 13.2926C19.7937 13.2247 19.8616 13.1567 19.8616 13.1567C19.8616 13.1567 19.8616 13.0209 19.9295 13.0209C20.1332 13.0209 20.1332 13.0888 20.1332 13.1567Z" fill="#C4111C" style="fill:#C4111C;fill:color(display-p3 0.7686 0.0667 0.1098);fill-opacity:1;"/>
<path d="M45.6989 16.5419V15.1249H50.6166V16.5419L49.3663 16.792V25.2939L50.6166 25.5439V26.9609H45.6989V25.5439L46.9491 25.2939V16.792L45.6989 16.5419Z" fill="white" style="fill:white;fill-opacity:1;"/>
<path d="M51.5335 16.5419V15.1249H56.4513V16.5419L55.201 16.792V25.2939L56.4513 25.5439V26.9609H51.5335V25.5439L52.7838 25.2939V16.792L51.5335 16.5419Z" fill="white" style="fill:white;fill-opacity:1;"/>
<path d="M67.7871 15.1249V18.2923H65.9534L65.87 16.9587H63.7029V25.2939L64.9531 25.5439V26.9609H60.0354V25.5439L61.2857 25.2939V16.9587H59.1185L59.0352 18.2923H57.2014V15.1249H67.7871Z" fill="white" style="fill:white;fill-opacity:1;"/>
<path d="M84.1241 18.209L80.8734 26.9609H79.2897L76.1223 18.209H76.039L76.289 23.3768V25.2105L77.5393 25.4606V26.8776H72.6215V25.4606L73.8718 25.2105V16.792L72.6215 16.5419V15.1249H73.8718H76.9558L79.9565 23.8769H80.0399L83.1239 15.1249H87.4582V16.5419L86.2079 16.792V25.2939L87.4582 25.5439V26.9609H82.5404V25.5439L83.7907 25.2939V23.4601L84.1241 18.209Z" fill="white" style="fill:white;fill-opacity:1;"/>
<path d="M94.043 26.961C93.9597 26.7943 93.8763 26.6276 93.8763 26.5442C93.8763 26.4609 93.7929 26.2108 93.7929 26.0441C93.5429 26.3775 93.1261 26.6276 92.7927 26.8776C92.376 27.0443 91.9592 27.211 91.3757 27.211C90.5422 27.211 89.7921 26.961 89.2919 26.5442C88.7918 26.0441 88.5418 25.4606 88.5418 24.6271C88.5418 23.7936 88.8752 23.1268 89.542 22.71C90.2088 22.2933 91.209 22.0432 92.4593 22.0432H93.7096V21.2097C93.7096 20.7929 93.6262 20.4595 93.3762 20.2095C93.1261 19.9594 92.7927 19.8761 92.2926 19.8761C92.0426 19.8761 91.7925 19.8761 91.5424 19.9594C91.2924 20.0428 91.1257 20.1261 91.0423 20.2095L90.8756 21.1263H89.1252V19.2092C89.542 18.9592 90.0421 18.7091 90.6256 18.4591C91.209 18.2924 91.7925 18.1257 92.4593 18.1257C93.5429 18.1257 94.4598 18.3757 95.1266 18.9592C95.7934 19.4593 96.1268 20.2095 96.1268 21.2097V24.8772C96.1268 25.0439 96.1268 25.1272 96.1268 25.2939C96.1268 25.4606 96.1268 25.544 96.1268 25.6273L96.877 25.7107V27.1277L94.043 26.961ZM91.9592 25.3773C92.2926 25.3773 92.626 25.2939 92.9594 25.1272C93.2095 24.9605 93.4595 24.7938 93.6262 24.5438V23.2101H92.376C91.8759 23.2101 91.4591 23.2935 91.209 23.5436C90.959 23.7936 90.7923 24.0437 90.7923 24.3771C90.7923 24.7105 90.8756 24.8772 91.1257 25.0439C91.3757 25.2939 91.6258 25.3773 91.9592 25.3773Z" fill="white" style="fill:white;fill-opacity:1;"/>
<path d="M103.295 25.8774C103.045 26.2941 102.712 26.6276 102.295 26.7943C101.961 26.961 101.461 27.1277 100.961 27.1277C99.8777 27.1277 99.0441 26.7109 98.4607 25.9607C97.8772 25.2106 97.5438 24.127 97.5438 22.7934V22.6267C97.5438 21.2097 97.8772 20.1261 98.4607 19.2926C99.0441 18.4591 99.8776 18.0423 101.045 18.0423C101.461 18.0423 101.878 18.1257 102.212 18.3757C102.545 18.5424 102.878 18.8758 103.128 19.2092V16.0419L101.878 15.7918V14.3748H103.128H105.546V25.3773L106.713 25.6273V27.0443H103.545L103.295 25.8774ZM99.961 22.7934C99.961 23.5435 100.044 24.127 100.378 24.6271C100.628 25.0439 101.045 25.2939 101.628 25.2939C101.961 25.2939 102.295 25.2106 102.545 25.1272C102.795 24.9605 103.045 24.7938 103.212 24.5438V20.7929C103.045 20.5429 102.878 20.2928 102.545 20.1261C102.295 19.9594 101.961 19.876 101.628 19.876C101.045 19.876 100.628 20.1261 100.378 20.6262C100.128 21.1263 99.961 21.7931 99.961 22.6267V22.7934Z" fill="white" style="fill:white;fill-opacity:1;"/>
<path d="M107.629 25.544L108.796 25.2939V19.7927L107.546 19.5427V18.1257H111.047L111.13 19.3759C111.297 18.9592 111.63 18.5424 111.964 18.2924C112.297 18.0423 112.63 17.8756 113.131 17.8756C113.214 17.8756 113.381 17.8756 113.547 17.8756C113.714 17.8756 113.797 17.8756 113.881 17.959L113.631 20.1261H112.63C112.297 20.1261 111.964 20.2095 111.797 20.2928C111.63 20.3762 111.38 20.6262 111.297 20.8763V25.1272L112.464 25.3773V26.7943H107.796L107.629 25.544Z" fill="white" style="fill:white;fill-opacity:1;"/>
<path d="M119.882 26.961C119.799 26.7943 119.799 26.6276 119.715 26.5442C119.632 26.4609 119.632 26.2108 119.632 26.0441C119.382 26.3775 118.965 26.6276 118.632 26.8776C118.215 27.0443 117.798 27.211 117.215 27.211C116.381 27.211 115.631 26.961 115.131 26.5442C114.631 26.0441 114.381 25.4606 114.381 24.6271C114.381 23.7936 114.714 23.1268 115.381 22.71C116.048 22.2933 117.048 22.0432 118.298 22.0432H119.549V21.2097C119.549 20.7929 119.465 20.4595 119.215 20.2095C118.965 19.9594 118.632 19.8761 118.132 19.8761C117.882 19.8761 117.632 19.8761 117.382 19.9594C117.132 20.0428 116.965 20.1261 116.881 20.2095L116.715 21.1263H114.964V19.2092C115.381 18.9592 115.881 18.7091 116.465 18.4591C117.048 18.2924 117.632 18.1257 118.298 18.1257C119.382 18.1257 120.299 18.3757 120.966 18.9592C121.633 19.5427 121.966 20.2095 121.966 21.2097V24.8772C121.966 25.0439 121.966 25.1272 121.966 25.2939C121.966 25.4606 121.966 25.544 121.966 25.6273L122.716 25.7107V27.1277L119.882 26.961ZM117.798 25.3773C118.132 25.3773 118.465 25.2939 118.799 25.1272C119.049 24.9605 119.299 24.7938 119.465 24.5438V23.2101H118.215C117.715 23.2101 117.298 23.2935 117.048 23.5436C116.798 23.7936 116.631 24.0437 116.631 24.3771C116.631 24.7105 116.715 24.8772 116.965 25.0439C117.215 25.2939 117.465 25.3773 117.798 25.3773Z" fill="white" style="fill:white;fill-opacity:1;"/>
<path d="M130.635 21.2097H129.051L128.801 20.1261C128.634 19.9594 128.467 19.8761 128.217 19.7927C127.967 19.7094 127.717 19.626 127.384 19.626C126.967 19.626 126.634 19.7094 126.384 19.8761C126.134 20.0428 126.05 20.2928 126.05 20.5429C126.05 20.793 126.134 21.043 126.384 21.2097C126.634 21.3764 127.05 21.5431 127.801 21.7098C128.884 21.9599 129.718 22.2099 130.218 22.71C130.718 23.1268 130.968 23.7103 130.968 24.4604C130.968 25.294 130.635 25.8774 129.968 26.3775C129.301 26.8776 128.384 27.1277 127.3 27.1277C126.634 27.1277 125.967 27.0444 125.467 26.7943C124.883 26.6276 124.383 26.2942 123.966 25.9608V23.9603H125.633L125.967 25.1273C126.134 25.2106 126.3 25.294 126.55 25.3773C126.8 25.4607 127.05 25.4607 127.3 25.4607C127.801 25.4607 128.134 25.3773 128.384 25.2106C128.634 25.0439 128.717 24.7938 128.717 24.4604C128.717 24.2104 128.634 23.9603 128.301 23.7936C128.051 23.6269 127.551 23.4602 126.884 23.2935C125.883 23.1268 125.05 22.7934 124.55 22.3766C124.05 21.9599 123.8 21.3764 123.8 20.7096C123.8 19.9594 124.133 19.376 124.717 18.7925C125.3 18.2924 126.217 17.959 127.3 17.959C127.967 17.959 128.634 18.0423 129.218 18.209C129.801 18.3757 130.301 18.6258 130.635 18.8759V21.2097Z" fill="white" style="fill:white;fill-opacity:1;"/>
</svg>
